<svg width="20" height="19" viewBox="0 0 20 19" fill="none" xmlns="http://www.w3.org/2000/svg">
<path d="M18.75 8.00462L3.92497 8.00462L8.46247 2.55462C8.67464 2.29935 8.77672 1.97025 8.74625 1.63971C8.71577 1.30918 8.55524 1.00429 8.29997 0.792117C8.0447 0.579944 7.7156 0.477866 7.38507 0.508341C7.05453 0.538816 6.74964 0.699346 6.53747 0.954617L0.28747 8.45462C0.24542 8.51427 0.207819 8.57694 0.174969 8.64212C0.174969 8.70462 0.17497 8.74212 0.0874697 8.80462C0.0308116 8.94794 0.00114588 9.1005 -3.05185e-05 9.25462C0.00114588 9.40873 0.0308116 9.56129 0.0874697 9.70462C0.0874697 9.76712 0.0874693 9.80462 0.174969 9.86712C0.207819 9.93229 0.24542 9.99496 0.28747 10.0546L6.53747 17.5546C6.655 17.6957 6.80217 17.8092 6.96853 17.887C7.13488 17.9647 7.31633 18.0049 7.49997 18.0046C7.79203 18.0052 8.07508 17.9035 8.29997 17.7171C8.42654 17.6122 8.53117 17.4833 8.60786 17.3379C8.68455 17.1924 8.7318 17.0333 8.74689 16.8696C8.76198 16.7059 8.74463 16.5408 8.69583 16.3838C8.64702 16.2268 8.56772 16.0809 8.46247 15.9546L3.92497 10.5046L18.75 10.5046C19.0815 10.5046 19.3994 10.3729 19.6339 10.1385C19.8683 9.90408 20 9.58614 20 9.25462C20 8.9231 19.8683 8.60515 19.6339 8.37073C19.3994 8.13631 19.0815 8.00462 18.75 8.00462Z" fill="#F53838"/>
</svg>
