<svg width="20" height="19" viewBox="0 0 20 19" fill="none" xmlns="http://www.w3.org/2000/svg">
<path d="M1.24997 10.5031L16.075 10.5031L11.5375 15.9531C11.3253 16.2083 11.2232 16.5374 11.2537 16.868C11.2842 17.1985 11.4447 17.5034 11.7 17.7156C11.9552 17.9277 12.2843 18.0298 12.6149 17.9993C12.9454 17.9689 13.2503 17.8083 13.4625 17.5531L19.7125 10.0531C19.7545 9.99342 19.7921 9.93075 19.825 9.86557C19.825 9.80307 19.825 9.76557 19.9125 9.70307C19.9691 9.55975 19.9988 9.40719 20 9.25307C19.9988 9.09896 19.9691 8.9464 19.9125 8.80307C19.9125 8.74057 19.9125 8.70307 19.825 8.64057C19.7921 8.5754 19.7545 8.51273 19.7125 8.45307L13.4625 0.953074C13.3449 0.81197 13.1978 0.698494 13.0314 0.620718C12.8651 0.542942 12.6836 0.502775 12.5 0.503073C12.2079 0.502502 11.9249 0.604221 11.7 0.790573C11.5734 0.89551 11.4688 1.02439 11.3921 1.16982C11.3154 1.31525 11.2681 1.47439 11.253 1.63811C11.238 1.80183 11.2553 1.96692 11.3041 2.12392C11.3529 2.28093 11.4322 2.42676 11.5375 2.55307L16.075 8.00307L1.24997 8.00307C0.918449 8.00307 0.600506 8.13477 0.366085 8.36919C0.131664 8.60361 -3.05177e-05 8.92155 -3.05177e-05 9.25307C-3.05177e-05 9.58459 0.131664 9.90254 0.366085 10.137C0.600506 10.3714 0.918449 10.5031 1.24997 10.5031Z" fill="#F53838"/>
</svg>
